<?xml version="1.0" standalone="no"?><!DOCTYPE svg PUBLIC "-//W3C//DTD SVG 1.1//EN" "http://www.w3.org/Graphics/SVG/1.1/DTD/svg11.dtd"><svg t="1547927111510" class="icon" style="" viewBox="0 0 1024 1024" version="1.1" xmlns="http://www.w3.org/2000/svg" p-id="928" xmlns:xlink="http://www.w3.org/1999/xlink" width="200" height="200"><defs><style type="text/css"></style></defs><path d="M985.818 216.537L815.16 210.43l-0.286-0.005c-0.355 0-35.895-0.248-67.415-21.69l-0.407-0.276-0.437-0.225c-22.799-11.714-46.694-14.173-62.727-14.173-9.256 0-15.776 0.825-17.663 1.095-6.301 0.278-55.361 4.355-123.603 63.695-19.126 16.633-39.045 42.446-55.567 71.826-24.388-23.978-101.055-98.61-150.403-138.27-58.549-47.07-77.828-59.891-78.62-60.414l-13.313-8.787 2.331 40.386c-25.144-14.481-38.715-20.718-39.852-21.234l-13.893-6.311 8.457 46.838c-30.898-12.173-54.288-19.985-54.699-20.122l-10.806-3.591 0.285 11.383c0.047 1.873 1.398 46.497 23.119 101.771 19.506 49.656 57.534 85.248 67.121 93.686-1.952 0.236-3.883 0.477-5.798 0.722-105.5 13.462-175.864 41.583-178.808 42.774l-12.829 5.188 52 40.692c-6.916 2.974-12.159 5.403-15.409 7.098l-10.5 5.472 8.996 7.7c29.1 24.909 53.488 37.934 54.512 38.476l2.988 1.582a1819.018 1819.018 0 0 0-10.572 5.436l-10.631 5.535 9.189 7.695c1.337 1.119 33.196 27.611 72.231 44.14 21.967 9.3 64.505 18.684 110.017 18.684 26.495 0 59.886-3.132 92.573-14.757a264.974 264.974 0 0 1-15.039 5.85l-3.441 1.223-1.331 3.4c-13.7 35.005-34.795 119.52-16.581 188.839 18.115 68.925 75.346 125.747 122.519 146.255 4.726 2.054 10.983 3.052 19.129 3.052 17.048 0 38.727-4.5 50.132-7.183 7.118-1.675 14.095-3.537 19.644-5.245 7.759-2.387 13.365-4.111 13.365-10.618 0-3.616-2.456-6.824-5.972-7.804a9.21 9.21 0 0 0-2.5-0.325c-0.331 0-33.622-0.318-76.876-27.853-15.221-9.684-30.614-27.176-42.699-48.936 9.49 13.446 21.379 25.554 37.155 34.944 22.967 13.679 68.781 31.031 87.525 31.031 3.13 0 5.66-0.476 7.739-1.456 39.276-18.548 62.95-46.769 63.938-47.961l12.752-15.379-19.842 2.327c-2.716 0.318-5.86 0.856-9.501 1.479-8.511 1.457-19.103 3.271-30.099 3.271a95.21 95.21 0 0 1-2.975-0.047c-45.172-1.467-83.129-14.981-112.818-40.168-18.37-15.582-31.176-34.551-39.688-50.64 3.729 6.081 7.94 12.179 12.649 17.944 25.39 31.116 50.579 51.465 104.199 63.392 16.683 3.708 33.516 5.588 50.03 5.588 29.404 0 47.714-5.947 48.479-6.2l1.857-0.614 1.364-1.402c0.437-0.448 10.781-11.122 19.489-23.471 32.252-45.731 37.799-76.273 38.02-77.552l4.754-27.568-18.61 20.887c-0.456 0.512-46.214 51.229-99.558 55.877-9.654 0.842-18.253 1.251-26.286 1.251-28.499 0-46.5-5.221-67.965-14.238-40.306-16.928-64.435-50.314-72.78-63.572 16.668-22.12 46.999-29.493 71.635-35.483l2.297-0.559c2.069-0.506 4.14-1.004 6.215-1.503 34.054-8.185 69.268-16.648 116.74-62.606 23.216-22.474 41.93-49.536 54.118-78.262 12.548-29.574 17.535-59.521 14.423-86.609-0.246-2.136-0.494-4.235-0.738-6.305-3.94-33.392-6.787-57.518 13.976-93.626 21.315-37.071 65.075-55.208 82.929-58.184 14.198-2.366 130.219-10.963 189.583-15.178l-0.279-15.975zM501.505 749.151c22.758 9.561 43.103 15.486 74.161 15.486 8.502 0 17.555-0.429 27.675-1.312 34.528-3.009 65.32-22.291 85.515-38.429-5.334 11.311-13.172 25.442-24.585 41.625-6.166 8.743-13.452 16.804-16.468 20.039-5.011 1.357-20.063 4.869-41.646 4.869-15.35 0-31.014-1.752-46.557-5.207-49.341-10.975-71.551-28.812-95.278-57.891a130.86 130.86 0 0 1-2.82-3.583c11.172 9.19 24.499 17.892 40.003 24.403z m174.333-543.096c2.972 0 5.514 2.033 6.182 4.945 0.782 3.41-1.359 6.821-4.772 7.604a6.428 6.428 0 0 1-1.435 0.164c-2.924 0-5.521-2.073-6.176-4.929-0.784-3.418 1.355-6.837 4.768-7.62a6.404 6.404 0 0 1 1.433-0.164zM475.67 325.063c0.937 0.769 1.792 1.472 2.559 2.104l-0.249 0.48-3.848-0.145 1.538-2.439zM326.628 184.877c1.332 1.07 2.68 2.164 4.051 3.284-26.216-18.137-57.185-37.414-67.558-43.811l-0.542-9.401c11.719 8.684 31.992 24.156 64.049 49.928z m35.436 53.148c2.159 1.556 4.294 3.099 6.412 4.635-30.948-19.128-46.66-27.54-81.563-45.82l-15.543-8.148c-34.417-18.046-38.9-20.397-53.596-27.184l-3.163-17.513c23.01 12.135 73.69 40.906 147.453 94.03z m-187.51 8.451c-14.239-36.237-19.305-68.141-21.081-84.566 22.675 8.01 74.89 27.291 119.036 49.772 66.922 34.096 167.642 95.979 199.484 115.743-19.67-0.714-60.574-2.029-95.264-2.029-16.32 0-29.588 0.291-39.432 0.863-38.324 2.214-87.358 6.141-100.523 7.212-9.456-8.475-44.527-41.956-62.22-86.995zM61.435 399.489c25.134-8.711 84.182-27.008 161.577-36.884 34.388-4.393 74.871-7.479 114.333-9.644-25.589 4.107-51.442 8.795-75.445 14.043-89.542 19.589-158.968 44.649-176.514 51.229l-23.951-18.744z m23.034 51.964c28.305-12.463 93.603-37.306 165.165-55.897 41.97-10.885 96.274-21.137 140.186-28.681-41.202 12.944-84.164 27.495-112.449 39.913-51.215 21.091-135.602 62.058-154.42 71.244-6.431-3.738-21.102-12.747-38.482-26.579z m384.148 331.895c32.512 27.581 73.777 42.371 122.656 43.959 7.136 0.228 14.176-0.285 20.621-1.061-9.965 8.497-23.904 18.692-40.915 26.767a8.778 8.778 0 0 1-1.207 0.066c-14.204 0-57.21-15.599-79.34-28.778-26.684-15.884-40.949-40.396-54.158-72.313-1.615-3.905-3-7.825-4.188-11.698 8.891 14.388 20.82 29.731 36.531 43.058z m325.268-551.44c-24.042 4.007-70.867 25.466-94.169 65.99-23.402 40.7-20.133 68.403-15.994 103.477 0.243 2.055 0.489 4.141 0.733 6.259 5.642 49.097-19.392 108.582-63.775 151.546-44.333 42.918-77.386 50.863-109.351 58.546-2.095 0.504-4.186 1.007-6.27 1.516l-2.282 0.556c-23.352 5.678-54.072 13.146-74.597 34.349l-0.685-2.113-1.504 2.421 0.733-29.843-17.038 61.816-0.593 2.044 0.019 0.068c-1.69 6.468-2.729 13.446-3.088 20.763-1.481 30.118 5.82 63.13 20.56 92.953 13.657 27.631 32.835 50.697 52.616 63.283 19.531 12.433 37.284 19.773 51.489 24.107-13.364 2.909-28.678 5.421-40.691 5.421-7.639 0-11.269-1.081-12.751-1.726-43.633-18.969-96.604-71.653-113.422-135.647-15.476-58.896-0.068-135.755 14.725-175.582 77.078-28.454 96.451-72.101 98.858-78.3 1.959-3.729 13.47-26.329 17.259-49.387l11.257-68.501-26.543 64.145c-11.915 28.794-27.729 51.551-47.003 67.64-43.073 35.951-100.021 43.497-140.209 43.497-43.269 0-83.301-8.748-103.779-17.418-24.475-10.362-46.445-25.279-58.493-34.172 39.807-20.329 177.547-89.533 273.231-123.521 65.41-23.235 92.994-31.734 103.615-34.731l4.115-1.162 1.503-4.632c0.131-0.411 0.257-0.817 0.382-1.222l3.329-10.021-0.107-0.038 1.078-3.354-0.157 0.014 0.462-1.492-7.741 2.149-1.069 0.097c-3.534-1.226-6.938-1.959-13.099-2.871 0.191-0.373 0.384-0.745 0.578-1.117l0.083-0.157c16.535-31.563 37.32-59.495 57.027-76.633 66.677-57.979 113.522-59.779 113.946-59.79l0.588-0.01 0.569-0.091c0.021-0.003 0.732-0.113 2.005-0.257-11.661 3.013-18.899 14.823-16.189 26.639 2.344 10.217 11.296 17.352 21.771 17.352a22.42 22.42 0 0 0 5.01-0.569c12.014-2.755 19.547-14.767 16.793-26.776-2.172-9.466-10.01-16.277-19.473-17.239 1.738-0.074 3.656-0.123 5.746-0.123 14.166 0 35.161 2.121 54.992 12.188 34.655 23.372 72.633 24.152 75.83 24.175l26.649 0.954c-23.481 1.929-41.982 3.614-47.479 4.53z" fill="" p-id="929"></path></svg>